/* XPM */
static char *f94c4617b6aa40b9d0bc8a05b0278e32[] = {
/* columns rows colors chars-per-pixel */
"64 64 2 1 ",
"  c #0B151E",
". c None",
/* pixels */
"................................................................",
"..........................            ..........................",
"......................                    ......................",
"...................    .                .    ...................",
".................   ....                ....   .................",
"................  ......                ......  ................",
"..............   ........              ........   ..............",
".............    ........              ........    .............",
"...........       .......  ..........  .......       ...........",
"..........         ..........................         ..........",
".........           ........................           .........",
"........           ..........................           ........",
".......           ............................           .......",
".......         .............      .............         .......",
"......         ..........              ..........         ......",
".....         .........                  .........         .....",
".....        ........                      ........        .....",
"....        ........                        ........        ....",
"...  ..     .......                          .......     ..  ...",
"... ....   .......                            .......   .... ...",
"..  ..... .......                              ....... .....  ..",
".. .............                                ............. ..",
".. ............                                  ............ ..",
".  ............                                  ............  .",
". ............                          .         ............ .",
".    .........        ...................         .........    .",
".       .....         .................            .....       .",
"        .....         ...............              .....        ",
"       ......         ..............               ......       ",
"       ......         ............                 ......       ",
"       .....           ..........                   .....       ",
"       .....                  .                     .....       ",
"       .....                ..      .               .....       ",
"       .....               .      ..                .....       ",
"       .....                     .                  .....       ",
"       .....                   ..........           .....       ",
"       ......                 ............         ......       ",
"       ......               ..............         ......       ",
"        .....              ...............         .....        ",
".       .....            .................         .....       .",
".    .........         ...................        .........    .",
". ............         .                          ............ .",
".  ............                                  ............  .",
".. ............                                  ............ ..",
".. .............                                ............. ..",
"..  ..... .......                              ....... .....  ..",
"... ....   .......                            .......   .... ...",
"...  ..     .......                          .......     ..  ...",
"....        ........                        ........        ....",
".....        ........                      ........        .....",
".....         .........                  .........         .....",
"......         ..........              ..........         ......",
".......         .............      .............         .......",
".......           ............................           .......",
"........           ..........................           ........",
".........           ........................           .........",
"..........         ..........................         ..........",
"...........       .......  ..........  .......       ...........",
".............    ........              ........    .............",
"..............   ........              ........   ..............",
"................  ......                ......  ................",
".................   ....                ....   .................",
"...................    .                .    ...................",
"......................                    ......................"
};
