/* XPM */
static char *_0c19652c00344b3fbde81e035ac633c[] = {
/* columns rows colors chars-per-pixel */
"32 32 2 1 ",
"  c #0B151E",
". c None",
/* pixels */
"................................",
"............        ............",
".........  .        .  .........",
".......  ...        ...  .......",
"......   ...        ...   ......",
".....     ............     .....",
"....      .............     ....",
"...     ......    ......     ...",
"..     ....          ....     ..",
"..    ....            ....    ..",
". .. ....              .... .. .",
"........                ........",
".......                  .......",
"    ...    .........     ....   ",
"    ...    .......        ..    ",
"    ..     ......         ..    ",
"    ..                    ...   ",
"    ..                    ...   ",
"    ..          .....     ..    ",
"    ...       .......     ..    ",
"    ...     .........    ...    ",
".......                  .......",
"........                ........",
". .. ....               ... .. .",
"..    ....            ....    ..",
"..     ....          ....     ..",
"...     .....      .....     ...",
"....     ..............     ....",
".....     ............     .....",
"......   ....  ..   ...   ......",
".......  ...        ...  .......",
".........  .        .. ........."
};
