/* XPM */
static char *_840ddf00d654811e4ab0a3c08290b82[] = {
/* columns rows colors chars-per-pixel */
"128 128 2 1 ",
"  c #0B151E",
". c None",
/* pixels */
"................................................................................................................................",
"........................................................                ........................................................",
"..................................................                            ..................................................",
"..............................................                                    ..............................................",
"...........................................                                          ...........................................",
"........................................       .                                .       ........................................",
"......................................      ....                                ....      ......................................",
"....................................     .......                                .......     ....................................",
"..................................     ..........                              ..........     ..................................",
"................................     ............                              ............     ................................",
"..............................     ..............                              ..............     ..............................",
".............................    ................                              ................    .............................",
"...........................       ...............                              ...............       ...........................",
"..........................         ..............                              ..............         ..........................",
".........................          ...............                            ...............          .........................",
".......................             ..............       ..............       ..............             .......................",
"......................               .............  ........................  .............               ......................",
".....................                 ....................................................                 .....................",
"....................                  ....................................................                  ....................",
"...................                    ..................................................                    ...................",
"..................                      ................................................                      ..................",
".................                      ..................................................                      .................",
"................                      ....................................................                      ................",
"...............                     ........................................................                     ...............",
"..............                     ..........................................................                     ..............",
".............                    ............................      ............................                    .............",
".............                   .......................                  .......................                   .............",
"............                   ....................                          ....................                   ............",
"...........                   ...................                              ...................                   ...........",
"...........                  .................                                    .................                  ...........",
"..........                  .................                                      .................                  ..........",
".........                  ................                                          ................                  .........",
".........                 ...............                                              ...............                 .........",
"........                 ...............                                                ...............                 ........",
"........  ..            ...............                                                  ...............            ..  ........",
".......  ....           ..............                                                    ..............           ....  .......",
".......  .....         ..............                                                      ..............         .....  .......",
"......  ........      ..............                                                        ..............      ........  ......",
"......  .........     .............                                                          .............     .........  ......",
".....  ...........   .............                                                            .............   ...........  .....",
".....  ..........................                                                              ..........................  .....",
"....   .........................                                                                .........................   ....",
"....  .........................                                                                  .........................  ....",
"....  .........................                                                                  .........................  ....",
"...  .........................                                                                    .........................  ...",
"...  .........................                                                                    .........................  ...",
"...  ........................                                                                      ........................  ...",
"..  .........................                                                                      .........................  ..",
"..  ........................                 .....................................                  ........................  ..",
"..        ..................                 ....................................                   ..................        ..",
"..             ............                  ..................................                      ............             ..",
".               ...........                  .................................                       ...........               .",
".               ..........                   ...............................                          ..........               .",
".              ...........                   .............................                            ...........              .",
".              ...........                   ............................                             ...........              .",
".              ...........                   ..........................                               ...........              .",
"               ..........                    .........................                                 ..........               ",
"               ..........                    .......................                                   ..........               ",
"              ...........                    ......................                                    ...........              ",
"              ...........                    ....................                                      ...........              ",
"              ...........                                    ...                                       ...........              ",
"              ...........                                   ..             .                           ...........              ",
"              ...........                                 ...            ..                            ...........              ",
"              ...........                                ..             ..                             ...........              ",
"              ...........                               ..            ..                               ...........              ",
"              ...........                             ..             ..                                ...........              ",
"              ...........                            ..            ...                                 ...........              ",
"              ...........                           .             ..                                   ...........              ",
"              ...........                                       ...                                    ...........              ",
"              ...........                                      ....................                    ...........              ",
"              ...........                                    ......................                    ...........              ",
"               ..........                                   .......................                    ..........               ",
"               ..........                                 .........................                    ..........               ",
".              ...........                               ..........................                   ...........              .",
".              ...........                             ............................                   ...........              .",
".              ...........                            .............................                   ...........              .",
".               ..........                          ...............................                   ..........               .",
".               ...........                       .................................                  ...........               .",
"..             ............                      ..................................                  ............             ..",
"..        ..................                   ....................................                 ..................        ..",
"..  ........................                  .....................................                 ........................  ..",
"..  .........................                                                                      .........................  ..",
"...  ........................                                                                      ........................  ...",
"...  .........................                                                                    .........................  ...",
"...  .........................                                                                    .........................  ...",
"....  .........................                                                                  .........................  ....",
"....  .........................                                                                  .........................  ....",
"....   .........................                                                                .........................   ....",
".....  ..........................                                                              ..........................  .....",
".....  ...........   .............                                                            .............   ...........  .....",
"......  .........     .............                                                          .............     .........  ......",
"......  ........      ..............                                                        ..............      ........  ......",
".......  .....         ..............                                                      ..............         .....  .......",
".......  ....           ..............                                                    ..............           ....  .......",
"........  ..            ...............                                                  ...............            ..  ........",
"........                 ...............                                                ...............                 ........",
".........                 ...............                                              ...............                 .........",
".........                  ................                                          ................                  .........",
"..........                  .................                                      .................                  ..........",
"...........                  .................                                    .................                  ...........",
"...........                   ...................                              ...................                   ...........",
"............                   ....................                          ....................                   ............",
".............                   .......................                  .......................                   .............",
".............                    ............................      ............................                    .............",
"..............                     ..........................................................                     ..............",
"...............                     ........................................................                     ...............",
"................                      ....................................................                      ................",
".................                      ..................................................                      .................",
"..................                      ................................................                      ..................",
"...................                    ..................................................                    ...................",
"....................                  ....................................................                  ....................",
".....................                 ....................................................                 .....................",
"......................               .............  ........................  .............               ......................",
".......................             ..............       ..............       ..............             .......................",
".........................          ...............                            ...............          .........................",
"..........................         ..............                              ..............         ..........................",
"...........................       ...............                              ...............       ...........................",
".............................    ................                              ................    .............................",
"..............................     ..............                              ..............     ..............................",
"................................     ............                              ............     ................................",
"..................................     ..........                              ..........     ..................................",
"....................................     .......                                .......     ....................................",
"......................................      ....                                ....      ......................................",
"........................................       .                                .       ........................................",
"...........................................                                          ...........................................",
"..............................................                                    ..............................................",
"..................................................                            ..................................................",
"........................................................                ........................................................"
};
