/* XPM */
static char *_f2397db47f4490ff2876b6178dbaf2c[] = {
/* columns rows colors chars-per-pixel */
"16 16 2 1 ",
"  c #0B151E",
". c None",
/* pixels */
"......    ......",
"...  .    .  ...",
"..   ......   ..",
".   ..    ..   .",
".  ..      ..  .",
"....        ....",
"  .   ....   .  ",
"  .   ..     .  ",
"  .      .   .  ",
"  .    ....  .  ",
"....        ....",
".  ..      ..  .",
".   ..    ..   .",
"..   ......   ..",
"...  .    .  ...",
"......    ......"
};
